<?xml version="1.0" standalone="no"?>
<!DOCTYPE svg PUBLIC "-//W3C//DTD SVG 20010904//EN"
 "http://www.w3.org/TR/2001/REC-SVG-20010904/DTD/svg10.dtd">
<svg version="1.0" xmlns="http://www.w3.org/2000/svg"
 width="256.000000pt" height="256.000000pt" viewBox="0 0 256.000000 256.000000"
 preserveAspectRatio="xMidYMid meet">
<metadata>
Created by potrace 1.11, written by Peter Selinger 2001-2013
</metadata>
<g transform="translate(0.000000,256.000000) scale(0.100000,-0.100000)"
fill="#000000" stroke="none">
<path d="M385 2399 c-119 -41 -200 -128 -230 -248 -13 -50 -15 -179 -13 -902
l3 -844 31 -65 c50 -104 126 -168 232 -195 48 -13 181 -15 888 -15 746 0 837
2 880 17 117 39 195 117 233 231 19 55 21 85 21 311 l0 249 -52 18 c-34 13
-77 43 -132 92 -130 117 -237 159 -386 150 -118 -8 -209 -48 -310 -137 -70
-61 -128 -85 -211 -88 -112 -3 -179 25 -253 108 -144 161 -87 418 114 512 34
15 64 20 125 20 104 0 147 -20 249 -112 128 -117 235 -158 381 -148 123 9 208
45 306 133 46 40 101 72 152 88 16 5 17 27 17 270 0 246 -2 270 -22 333 -18
56 -33 79 -82 129 -34 33 -84 72 -111 85 l-50 24 -860 2 c-846 3 -861 2 -920
-18z m450 -268 c34 -12 79 -39 112 -68 134 -117 212 -153 343 -159 143 -6 246
33 365 137 95 84 140 103 240 104 68 0 89 -4 136 -27 114 -56 180 -157 184
-279 7 -198 -154 -354 -347 -335 -81 7 -134 33 -210 102 -108 98 -217 144
-342 144 -120 0 -264 -57 -333 -131 -73 -79 -167 -120 -267 -115 -283 14 -409
364 -201 559 87 81 209 107 320 68z m36 -1114 c30 -15 75 -47 101 -72 138
-134 328 -178 502 -116 72 25 124 58 191 122 77 73 141 98 239 96 95 -2 151
-25 216 -89 65 -62 94 -136 93 -233 -1 -119 -50 -211 -143 -270 -136 -85 -285
-64 -420 60 -38 35 -92 71 -139 93 -71 34 -83 36 -183 38 -150 3 -229 -26
-344 -128 -96 -84 -157 -111 -253 -111 -94 0 -169 31 -231 99 -61 66 -84 124
-86 216 -2 66 2 85 26 137 43 91 98 139 210 184 8 4 49 5 91 4 59 -3 89 -10
130 -30z"/>
</g>
</svg>
