<?xml version="1.0" encoding="UTF-8"?>
<svg width="77px" height="100px" viewBox="0 0 77 100" version="1.1" xmlns="http://www.w3.org/2000/svg" xmlns:xlink="http://www.w3.org/1999/xlink">
    <!-- Generator: Sketch 46.1 (44463) - http://www.bohemiancoding.com/sketch -->
    <title>contact-metaball</title>
    <desc>Created with Sketch.</desc>
    <defs>
        <linearGradient x1="-10.5304982%" y1="77.3851206%" x2="86.2334772%" y2="-51.1032261%" id="linearGradient-1">
            <stop stop-color="#FF7E2B" offset="0%"></stop>
            <stop stop-color="#FBB848" offset="100%"></stop>
        </linearGradient>
    </defs>
    <g id="About" stroke="none" stroke-width="1" fill="none" fill-rule="evenodd">
        <g id="Contact" transform="translate(-1015.000000, -174.000000)" fill="url(#linearGradient-1)">
            <path d="M1053.52478,219.375098 C1045.59496,219.375098 1038.40663,216.212311 1033.11537,211.086352 C1029.55837,206.910832 1024.28303,204.25886 1018.38832,204.25886 C1007.68015,204.25886 999,212.990788 999,223.76064 C999,234.528712 1007.68015,243.25886 1018.38832,243.25886 C1023.68312,243.25886 1028.48065,241.121265 1031.97925,237.659463 C1037.36784,231.860722 1045.02159,228.231615 1053.52478,228.231615 C1061.52892,228.231615 1068.78272,231.451358 1074.08637,236.668088 C1077.63984,240.70834 1082.82846,243.25886 1088.61345,243.25886 C1099.31808,243.25886 1108,234.528712 1108,223.76064 C1108,212.990788 1099.31808,204.25886 1088.61345,204.25886 C1082.58778,204.25886 1077.20627,207.024742 1073.65104,211.358669 C1068.38632,216.326221 1061.31125,219.375098 1053.52478,219.375098 Z" id="contact-metaball" transform="translate(1053.500000, 223.758860) rotate(-239.000000) translate(-1053.500000, -223.758860) "></path>
        </g>
    </g>
</svg>