<?xml version="1.0" encoding="UTF-8"?>
<svg width="163px" height="26px" viewBox="0 0 163 26" version="1.1" xmlns="http://www.w3.org/2000/svg" xmlns:xlink="http://www.w3.org/1999/xlink">
    <!-- Generator: Sketch 45.2 (43514) - http://www.bohemiancoding.com/sketch -->
    <title>cv-logo-topbar</title>
    <desc>Created with Sketch.</desc>
    <defs>
        <linearGradient x1="86.9568806%" y1="-4.19145161%" x2="5.86086985%" y2="100%" id="linearGradient-1">
            <stop stop-color="#FF7E2B" offset="0%"></stop>
            <stop stop-color="#FBB848" offset="100%"></stop>
        </linearGradient>
    </defs>
    <g id="Symbols" stroke="none" stroke-width="1" fill="none" fill-rule="evenodd">
        <g id="navigation/topbar" transform="translate(-155.000000, -28.000000)">
            <g id="cv-logo-topbar" transform="translate(155.000000, 28.000000)">
                <path d="M20.6871103,0.000288888889 C19.464406,0.000288888889 18.3564962,0.495526984 17.5488496,1.2982254 L17.5488496,1.2982254 L17.5455815,1.2982254 C16.3049023,2.64279683 14.5384561,3.48470159 12.5759198,3.48470159 L12.5759198,3.48470159 C10.7277694,3.48470159 9.05364912,2.73813016 7.82890226,1.52809841 L7.82890226,1.52809841 C7.009,0.591685714 5.81121554,0.000288888889 4.4757594,0.000288888889 L4.4757594,0.000288888889 C2.00379699,0.000288888889 0,2.0241619 0,4.5214 L0,4.5214 C0,7.0182254 2.00379699,9.04251111 4.4757594,9.04251111 L4.4757594,9.04251111 C5.86595739,9.04251111 7.1086792,8.40200317 7.9293985,7.39708254 L7.9293985,7.39708254 C9.14434085,6.24482857 10.7780175,5.53828889 12.5759198,5.53828889 L12.5759198,5.53828889 C14.4060952,5.53828889 16.0655088,6.27082857 17.2869875,7.4598127 L17.2869875,7.4598127 C18.1077068,8.42841587 19.3263258,9.04251111 20.6871103,9.04251111 L20.6871103,9.04251111 C23.1582556,9.04251111 25.1624612,7.0182254 25.1624612,4.5214 L25.1624612,4.5214 C25.1624612,2.0241619 23.1582556,0.000288888889 20.6871103,0.000288888889 Z M8.25580702,11.7914952 C8.18431579,14.2874952 10.1296942,16.3695587 12.6000226,16.441781 L12.6000226,16.441781 C13.8223183,16.477273 14.9437093,16.0142254 15.7738246,15.2354635 L15.7738246,15.2354635 L15.7775013,15.2358762 C17.0553559,13.9280349 18.8459048,13.1381302 20.8076241,13.1959079 L20.8076241,13.1959079 C22.6545489,13.2499714 24.3070175,14.0448286 25.4962231,15.2899397 L25.4962231,15.2899397 C26.2895714,16.2502889 27.470198,16.8759397 28.8048371,16.9155587 L28.8048371,16.9155587 C31.2755739,16.9873683 33.3361554,15.0225111 33.4076466,12.5265111 L33.4076466,12.5265111 C33.4791378,10.0305111 31.5341679,7.94844762 29.0630226,7.8762254 L29.0630226,7.8762254 C27.6732331,7.83578095 26.4129449,8.43997143 25.5636291,9.42054286 L25.5636291,9.42054286 C24.316005,10.5364794 22.6635363,11.1955587 20.8664511,11.143146 L20.8664511,11.143146 C19.0366842,11.0894952 17.3993308,10.3082571 16.2121679,9.08419365 L16.2121679,9.08419365 C15.4192281,8.09206667 14.219401,7.44247937 12.8590251,7.40286032 L12.8590251,7.40286032 C12.8153133,7.40162222 12.771193,7.40079683 12.7274812,7.40079683 L12.7274812,7.40079683 C10.3151629,7.40079683 8.32607268,9.34006667 8.25580702,11.7914952 L8.25580702,11.7914952 Z M17.2330627,16.9213365 C16.0177118,18.0731778 14.3844436,18.7801302 12.5869499,18.7801302 L12.5869499,18.7801302 C10.7563659,18.7801302 9.09695238,18.0467651 7.87547368,16.8581937 L7.87547368,16.8581937 C7.05434586,15.8900032 5.83654386,15.2750825 4.4757594,15.2750825 L4.4757594,15.2750825 C2.00379699,15.2750825 0,17.299781 0,19.797019 L0,19.797019 C0,22.2938444 2.00379699,24.3181302 4.4757594,24.3181302 L4.4757594,24.3181302 C5.69805514,24.3181302 6.80555639,23.8224794 7.61320301,23.019781 L7.61320301,23.019781 L7.6168797,23.019781 C8.85715038,21.6752095 10.624005,20.8337175 12.5869499,20.8337175 L12.5869499,20.8337175 C14.4346917,20.8337175 16.1092206,21.5802889 17.3335589,22.7899079 L17.3335589,22.7899079 C18.1538697,23.7267333 19.3516541,24.3181302 20.6871103,24.3181302 L20.6871103,24.3181302 C23.1582556,24.3181302 25.1624612,22.2938444 25.1624612,19.797019 L25.1624612,19.797019 C25.1624612,17.299781 23.1582556,15.2750825 20.6871103,15.2750825 L20.6871103,15.2750825 C19.2960952,15.2750825 18.053782,15.9164159 17.2330627,16.9213365 L17.2330627,16.9213365 Z" id="Fill-1" fill="url(#linearGradient-1)" fill-rule="nonzero"></path>
                <path d="M123.126319,5.42376508 L119.954968,12.3294476 L116.75788,5.42376508 L111.456091,5.42376508 L118.447525,18.894654 L121.46282,18.894654 L128.428517,5.42376508 L123.126319,5.42376508 Z M131.945885,10.2028127 C132.23185,8.81119365 133.37571,8.07576508 134.753244,8.07576508 C136.026605,8.07576508 137.19661,8.91601905 137.430692,10.2028127 L131.945885,10.2028127 Z M134.51957,4.9772254 C130.178622,4.9772254 127.13759,7.68205079 127.13759,12.1722095 C127.13759,16.820019 130.438442,19.3411937 134.857417,19.3411937 C136.391006,19.3411937 137.898449,18.9730667 139.119928,18.2112254 C140.341815,17.4502095 141.277738,16.2950667 141.641322,14.7189714 L137.092845,14.7189714 C136.572798,15.6120508 135.844813,15.9537651 134.831271,15.9537651 C132.882216,15.9537651 131.867858,14.9030349 131.867858,12.9600508 L141.823114,12.9600508 L141.823114,12.4610984 C141.823114,7.86570159 139.146073,4.9772254 134.51957,4.9772254 L134.51957,4.9772254 Z M104.785347,15.1919238 C102.862028,15.1919238 101.744314,13.8787175 101.744314,12.1722095 C101.744314,10.5181143 102.862028,9.12608254 104.785347,9.12608254 C106.708665,9.12608254 107.826379,10.5181143 107.826379,12.1722095 C107.826379,13.8787175 106.708665,15.1919238 104.785347,15.1919238 L104.785347,15.1919238 Z M104.785347,4.9772254 C100.496281,4.9772254 96.7534093,7.5772254 96.7534093,12.1722095 C96.7534093,16.7671937 100.522427,19.3411937 104.785347,19.3411937 C109.074003,19.3411937 112.817284,16.7411937 112.817284,12.1722095 C112.817284,7.5772254 109.074003,4.9772254 104.785347,4.9772254 L104.785347,4.9772254 Z M149.694093,10.3340508 C149.044136,10.2028127 147.562838,10.0711619 147.562838,9.15249524 C147.562838,8.46989206 148.498352,8.23341587 149.044136,8.23341587 C149.850149,8.23341587 150.86369,8.49630476 151.591675,8.88960635 L153.177146,5.84389206 C151.799612,5.21370159 150.292169,4.9772254 148.784725,4.9772254 C145.873602,4.9772254 142.910189,6.44766984 142.910189,9.75627302 C142.910189,12.1722095 144.391895,12.9076381 145.873602,13.3013524 C147.354901,13.6950667 148.836607,13.7478921 148.836607,14.7982095 C148.836607,15.5332254 147.952567,15.8217016 147.354901,15.8217016 C146.184895,15.8217016 144.573687,15.1395111 143.612028,14.4569079 L141.896239,17.7915111 C143.508264,18.7894159 145.3797,19.3411937 147.276873,19.3411937 C150.369788,19.3411937 153.567284,17.8703365 153.567284,14.3252571 C153.567284,11.8309079 151.903377,10.7801778 149.694093,10.3340508 L149.694093,10.3340508 Z M160.204121,5.42376508 L160.204121,1.38014603 L155.473444,1.38014603 L155.473444,5.42376508 L153.940264,5.42376508 L153.940264,9.36255873 L155.473444,9.36255873 L155.473444,18.894654 L160.204121,18.894654 L160.204121,9.36255873 L162.880753,9.36255873 L162.880753,5.42376508 L160.204121,5.42376508 Z M96.9601211,5.42376508 L94.283081,5.42376508 L94.283081,1.38014603 L89.5524043,1.38014603 L89.5524043,5.42376508 L88.0188153,5.42376508 L88.0188153,9.36255873 L89.5524043,9.36255873 L89.5524043,18.894654 L94.283081,18.894654 L94.283081,9.36255873 L96.9601211,9.36255873 L96.9601211,5.42376508 Z M33.150319,8.11455873 C33.2663391,8.21979683 33.3807251,8.32709841 33.4885747,8.44265397 C34.5339807,9.56147937 35.0854845,11.0244952 35.0413642,12.5622095 C34.9964268,14.1271619 34.3509632,15.5220825 33.3300684,16.5278286 C34.6598053,18.2648762 36.7922865,19.3411937 39.1653867,19.3411937 C40.3092464,19.3411937 41.453106,19.1038921 42.4923842,18.5793524 L42.4923842,14.5353206 C41.8689807,15.1130984 40.9592038,15.4548127 40.1274544,15.4548127 C38.1779907,15.4548127 36.8004569,14.088781 36.8004569,12.1457968 C36.8004569,10.2816381 38.2298729,8.86360635 40.0498353,8.86360635 C40.9592038,8.86360635 41.7909531,9.28414603 42.4923842,9.80868571 L42.4923842,5.76506667 C41.5568704,5.24011429 40.4653015,4.9772254 39.3737326,4.9772254 C36.7436724,4.9772254 34.4747451,6.16084444 33.150319,8.11455873 L33.150319,8.11455873 Z M63.1843967,12.3294476 L59.6233165,5.42376508 L54.4555221,5.42376508 L54.4555221,5.24011429 L53.5457451,5.24011429 C51.7004544,5.24011429 50.1407201,5.97513016 49.2309431,7.6296381 L49.1790609,7.6296381 L49.1790609,5.42376508 L44.4483842,5.42376508 L44.4483842,18.894654 L49.1790609,18.894654 L49.1790609,13.4590032 C49.1790609,11.1483048 49.8286098,9.38897143 52.4537677,9.38897143 C53.1817526,9.38897143 53.8055647,9.46779683 54.4555221,9.83509841 L54.4555221,5.94789206 L60.6111211,17.0564952 L56.0626449,25.6166857 L61.3648429,25.6166857 L72.0480835,5.42376508 L66.6674494,5.42376508 L63.1843967,12.3294476 Z M79.8749431,15.1919238 C77.9516248,15.1919238 76.8339105,13.8787175 76.8339105,12.1722095 C76.8339105,10.5181143 77.9516248,9.12608254 79.8749431,9.12608254 C81.7982614,9.12608254 82.9159757,10.5181143 82.9159757,12.1722095 C82.9159757,13.8787175 81.7982614,15.1919238 79.8749431,15.1919238 L79.8749431,15.1919238 Z M81.070685,4.9772254 C79.5109506,4.9772254 77.8997426,5.60741587 77.0418479,6.94662222 L76.9895571,6.94662222 L76.9895571,5.42376508 L72.259289,5.42376508 L72.259289,25.6166857 L76.9895571,25.6166857 L76.9895571,17.6074476 C78.0039155,18.7894159 79.5889782,19.3411937 81.1225672,19.3411937 C85.0737852,19.3411937 87.8027075,16.0850032 87.8027075,12.1986222 C87.8027075,8.33824127 85.0476398,4.9772254 81.070685,4.9772254 L81.070685,4.9772254 Z" id="Fill-4" fill="#533D52"></path>
            </g>
        </g>
    </g>
</svg>