<?xml version="1.0" encoding="UTF-8"?>
<svg width="252px" height="183px" viewBox="0 0 252 183" version="1.1" xmlns="http://www.w3.org/2000/svg" xmlns:xlink="http://www.w3.org/1999/xlink">
    <!-- Generator: Sketch 46 (44423) - http://www.bohemiancoding.com/sketch -->
    <title>element</title>
    <desc>Created with Sketch.</desc>
    <defs>
        <linearGradient x1="86.9568806%" y1="-4.19145161%" x2="5.86086985%" y2="100%" id="linearGradient-1">
            <stop stop-color="#FF7E2B" offset="0%"></stop>
            <stop stop-color="#FBB848" offset="100%"></stop>
        </linearGradient>
    </defs>
    <g id="About" stroke="none" stroke-width="1" fill="none" fill-rule="evenodd">
        <g transform="translate(-978.000000, -163.000000)" id="element" fill-rule="nonzero" fill="url(#linearGradient-1)">
            <g transform="translate(978.000000, 163.000000)">
                <path d="M156.037745,0 C146.81519,0 138.458501,3.72683457 132.366623,9.76741226 L132.366623,9.76741226 L132.341972,9.76741226 C122.983836,19.8857681 109.659971,26.2213869 94.857046,26.2213869 L94.857046,26.2213869 C80.9169058,26.2213869 68.2894313,20.6031838 59.0514693,11.4972846 L59.0514693,11.4972846 C52.8671498,4.45046161 43.8325585,0 33.7595438,0 L33.7595438,0 C15.1141441,0 0,15.2303306 0,34.0228939 L0,34.0228939 C0,52.8123515 15.1141441,68.0457878 33.7595438,68.0457878 L33.7595438,68.0457878 C44.2454627,68.0457878 53.6190053,63.2257484 59.8094875,55.6633799 L59.8094875,55.6633799 C68.9734966,46.9922782 81.2959149,41.6753275 94.857046,41.6753275 L94.857046,41.6753275 C108.661606,41.6753275 121.178151,47.187937 130.391462,56.1354457 L130.391462,56.1354457 C136.581944,63.4245129 145.773685,68.0457878 156.037745,68.0457878 L156.037745,68.0457878 C174.676982,68.0457878 189.794208,52.8123515 189.794208,34.0228939 L189.794208,34.0228939 C189.794208,15.2303306 174.676982,0 156.037745,0 Z M62.2715061,88.7328253 C61.7322655,107.516072 76.4057729,123.184305 95.0388472,123.727802 L95.0388472,123.727802 C104.258321,123.994892 112.716695,120.510301 118.978049,114.649854 L118.978049,114.649854 L119.005781,114.65296 C128.644322,104.811011 142.149989,98.8667097 156.946751,99.301507 L156.946751,99.301507 C170.877647,99.7083531 183.341809,105.689923 192.311691,115.059806 L192.311691,115.059806 C198.295721,122.286759 207.200895,126.994994 217.267747,127.29314 L217.267747,127.29314 C235.903902,127.833531 251.446358,113.047315 251.985598,94.264069 L251.985598,94.264069 C252.524839,75.4808228 237.854413,59.8125891 219.215176,59.2690924 L219.215176,59.2690924 C208.732338,58.9647342 199.226297,63.5114724 192.820118,70.8906048 L192.820118,70.8906048 C183.409599,79.2884054 170.945437,84.2482011 157.390469,83.8537777 L157.390469,83.8537777 C143.588991,83.4500373 131.23884,77.5709558 122.284364,68.359463 L122.284364,68.359463 C116.303416,60.8933711 107.253417,56.0050064 96.9924389,55.7068597 L96.9924389,55.7068597 C96.6627317,55.6975426 96.3299433,55.6913312 96.0002361,55.6913312 L96.0002361,55.6913312 C77.8047171,55.6913312 62.8015026,70.2849942 62.2715061,88.7328253 L62.2715061,88.7328253 Z M129.98472,127.33662 C120.81763,136.004616 108.498293,141.324672 94.9402432,141.324672 L94.9402432,141.324672 C81.1326021,141.324672 68.6160571,135.805852 59.402746,126.861449 L59.402746,126.861449 C53.2091824,119.575487 44.0236037,114.948001 33.7595438,114.948001 L33.7595438,114.948001 C15.1141441,114.948001 0,130.184543 0,148.977106 L0,148.977106 C0,167.766564 15.1141441,183 33.7595438,183 L33.7595438,183 C42.9790176,183 51.3326251,179.27006 57.4245033,173.229482 L57.4245033,173.229482 L57.4522357,173.229482 C66.80729,163.111126 80.1342366,156.778613 94.9402432,156.778613 L94.9402432,156.778613 C108.877302,156.778613 121.507858,162.396816 130.742739,171.49961 L130.742739,171.49961 C136.930139,178.549538 145.964731,183 156.037745,183 L156.037745,183 C174.676982,183 189.794208,167.766564 189.794208,148.977106 L189.794208,148.977106 C189.794208,130.184543 174.676982,114.948001 156.037745,114.948001 L156.037745,114.948001 C145.545664,114.948001 136.175203,119.774252 129.98472,127.33662 L129.98472,127.33662 Z" id="Fill-1"></path>
            </g>
        </g>
    </g>
</svg>