<?xml version="1.0" encoding="UTF-8"?>
<svg width="40px" height="40px" viewBox="0 0 40 40" version="1.1" xmlns="http://www.w3.org/2000/svg" xmlns:xlink="http://www.w3.org/1999/xlink">
    <!-- Generator: Sketch 45.2 (43514) - http://www.bohemiancoding.com/sketch -->
    <title>Facebook_Color</title>
    <desc>Created with Sketch.</desc>
    <defs></defs>
    <g id="News" stroke="none" stroke-width="1" fill="none" fill-rule="evenodd">
        <g id="News---Article" transform="translate(-674.000000, -937.000000)">
            <g id="Facebook" transform="translate(674.000000, 937.000000)">
                <path d="M0,20 C0,8.95430446 8.95430446,0 20,0 C31.0456955,0 40,8.95430446 40,20 C40,31.0456955 31.0456955,40 20,40 C8.95430446,40 0,31.0456955 0,20 Z" id="back" fill="#3B5998"></path>
                <path d="M21.4179626,31.0928973 L21.4179626,20.2118413 L24.4216099,20.2118413 L24.819658,16.4621692 L21.4179626,16.4621692 L21.4230658,14.5854222 C21.4230658,13.60745 21.5159862,13.0834301 22.9206368,13.0834301 L24.7983948,13.0834301 L24.7983948,9.33333333 L21.7943222,9.33333333 C18.1859479,9.33333333 16.9158937,11.1523277 16.9158937,14.2113043 L16.9158937,16.4625939 L14.6666667,16.4625939 L14.6666667,20.212266 L16.9158937,20.212266 L16.9158937,31.0928973 L21.4179626,31.0928973 Z" id="Shape" fill="#FFFFFF"></path>
            </g>
        </g>
    </g>
</svg>