<?xml version="1.0" encoding="UTF-8"?>
<svg width="17px" height="17px" viewBox="0 0 17 17" version="1.1" xmlns="http://www.w3.org/2000/svg" xmlns:xlink="http://www.w3.org/1999/xlink">
    <!-- Generator: Sketch 45.2 (43514) - http://www.bohemiancoding.com/sketch -->
    <title>fb-ic</title>
    <desc>Created with Sketch.</desc>
    <defs></defs>
    <g id="Symbols" stroke="none" stroke-width="1" fill="none" fill-rule="evenodd">
        <g id="navigation/topbar" transform="translate(-1232.000000, -32.000000)">
            <g id="fb-ic" transform="translate(1224.000000, 24.000000)">
                <rect id="Rectangle-2" x="0" y="0" width="32" height="32"></rect>
                <path d="M23.1111111,8 L9.88888889,8 C8.85,8 8,8.85 8,9.88888889 L8,23.1111111 C8,24.1509444 8.85,25 9.88888889,25 L16.5,25 L16.5,18.3888889 L14.6111111,18.3888889 L14.6111111,16.0513889 L16.5,16.0513889 L16.5,14.1152778 C16.5,12.0715 17.6446667,10.6359444 20.0567778,10.6359444 L21.7596111,10.6378333 L21.7596111,13.0981111 L20.6291111,13.0981111 C19.6903333,13.0981111 19.3333333,13.8026667 19.3333333,14.4562222 L19.3333333,16.0523333 L21.7586667,16.0523333 L21.2222222,18.3888889 L19.3333333,18.3888889 L19.3333333,25 L23.1111111,25 C24.15,25 25,24.1509444 25,23.1111111 L25,9.88888889 C25,8.85 24.15,8 23.1111111,8 Z" id="Shape" fill="#3F4245" fill-rule="nonzero"></path>
            </g>
        </g>
    </g>
</svg>