<?xml version="1.0" encoding="UTF-8"?>
<svg width="16px" height="12px" viewBox="0 0 16 12" version="1.1" xmlns="http://www.w3.org/2000/svg" xmlns:xlink="http://www.w3.org/1999/xlink">
    <!-- Generator: Sketch 45.2 (43514) - http://www.bohemiancoding.com/sketch -->
    <title>ic/mail</title>
    <desc>Created with Sketch.</desc>
    <defs></defs>
    <g id="Symbols" stroke="none" stroke-width="1" fill="none" fill-rule="evenodd" opacity="0.3">
        <g id="components/section-header" transform="translate(-772.000000, -71.000000)">
            <g id="ic/mail" transform="translate(771.000000, 68.000000)">
                <g>
                    <polygon id="Bounds" points="0 0 18 0 18 18 0 18"></polygon>
                    <path d="M15,3 L3,3 C2.175,3 1.5075,3.675 1.5075,4.5 L1.5,13.5 C1.5,14.325 2.175,15 3,15 L15,15 C15.825,15 16.5,14.325 16.5,13.5 L16.5,4.5 C16.5,3.675 15.825,3 15,3 L15,3 Z M15,6 L9,9.75 L3,6 L3,4.5 L9,8.25 L15,4.5 L15,6 L15,6 Z" id="Icon" fill="#3F4245"></path>
                </g>
            </g>
        </g>
    </g>
</svg>