<?xml version="1.0" encoding="UTF-8"?>
<svg width="47px" height="130px" viewBox="0 0 47 130" version="1.1" xmlns="http://www.w3.org/2000/svg" xmlns:xlink="http://www.w3.org/1999/xlink">
    <!-- Generator: Sketch 45.2 (43514) - http://www.bohemiancoding.com/sketch -->
    <title>metaball-subscriptions</title>
    <desc>Created with Sketch.</desc>
    <defs>
        <linearGradient x1="-10.5304982%" y1="77.3851206%" x2="86.2334772%" y2="-51.1032261%" id="linearGradient-1">
            <stop stop-color="#FBB848" offset="0%"></stop>
            <stop stop-color="#FF7E2B" offset="100%"></stop>
        </linearGradient>
    </defs>
    <g id="Page-1" stroke="none" stroke-width="1" fill="none" fill-rule="evenodd">
        <g id="Home" transform="translate(-152.000000, -1410.000000)" fill="url(#linearGradient-1)">
            <g id="metaball-subscriptions" transform="translate(152.000000, 1410.000000)">
                <path d="M23.3692774,59.6963642 C13.9199451,59.6963642 5.35418132,55.9107906 -0.950996869,49.7754772 C-5.18959492,44.7777531 -11.4757943,41.6035806 -18.500058,41.6035806 C-31.2601361,41.6035806 -41.6035806,52.0549166 -41.6035806,64.9454657 C-41.6035806,77.8338845 -31.2601361,88.2830902 -18.500058,88.2830902 C-12.1906623,88.2830902 -6.47382686,85.7245793 -2.30481774,81.5811124 C4.11634199,74.6405391 13.2367084,70.2968224 23.3692774,70.2968224 C32.9071774,70.2968224 41.5509652,74.1505662 47.8709046,80.3945258 C52.1052852,85.2303457 58.2881556,88.2830902 65.1816765,88.2830902 C77.937537,88.2830902 88.2830902,77.8338845 88.2830902,64.9454657 C88.2830902,52.0549166 77.937537,41.6035806 65.1816765,41.6035806 C58.0013649,41.6035806 51.5886402,44.9140934 47.3521509,50.1014157 C41.078604,56.0471309 32.6478005,59.6963642 23.3692774,59.6963642 Z" id="Path-Copy-3" transform="translate(23.339755, 64.943335) rotate(-270.000000) translate(-23.339755, -64.943335) "></path>
            </g>
        </g>
    </g>
</svg>