<?xml version="1.0" encoding="UTF-8"?>
<svg width="44px" height="36px" viewBox="0 0 44 36" version="1.1" xmlns="http://www.w3.org/2000/svg" xmlns:xlink="http://www.w3.org/1999/xlink">
    <!-- Generator: Sketch 46 (44423) - http://www.bohemiancoding.com/sketch -->
    <title>quote-left</title>
    <desc>Created with Sketch.</desc>
    <defs></defs>
    <g id="About" stroke="none" stroke-width="1" fill="none" fill-rule="evenodd">
        <g transform="translate(-571.000000, -474.000000)" id="quote-left" fill="#FF8931">
            <g transform="translate(571.000000, 474.000000)">
                <path d="M18.9710145,4.75770925 L13.0724638,0 C9.08695652,2.69603524 6.05797101,6.18502203 3.66666667,10.4669604 C1.27536232,14.7488987 0,19.1894273 0,23.7885463 C0,27.4361233 0.956521739,30.4493392 2.86956522,32.6696035 C4.7826087,34.8898678 7.17391304,36 9.88405797,36 C12.2753623,36 14.1884058,35.2070485 15.7826087,33.6211454 C17.3768116,32.0352423 18.173913,30.1321586 18.173913,27.753304 C18.173913,25.5330396 17.3768116,23.6299559 15.942029,21.8854626 C14.5072464,20.2995595 12.5942029,19.5066079 10.3623188,19.5066079 L8.28985507,19.6651982 C8.44927536,17.1277533 9.56521739,14.4317181 11.6376812,11.5770925 C13.7101449,8.72246696 15.942029,6.50220264 18.4927536,4.75770925 L18.9710145,4.75770925 Z M44,4.75770925 L38.1014493,0 C34.115942,2.69603524 31.0869565,6.18502203 28.6956522,10.4669604 C26.3043478,14.7488987 25.0289855,19.1894273 25.0289855,23.7885463 C25.0289855,27.4361233 25.9855072,30.4493392 27.8985507,32.6696035 C29.8115942,34.8898678 32.2028986,36 34.9130435,36 C37.3043478,36 39.3768116,35.2070485 41.1304348,33.6211454 C42.884058,32.0352423 43.6811594,30.1321586 43.6811594,27.753304 C43.6811594,25.5330396 42.884058,23.6299559 41.4492754,21.8854626 C40.0144928,20.2995595 38.1014493,19.5066079 35.8695652,19.5066079 L33.7971014,19.6651982 C34.115942,17.1277533 35.2318841,14.4317181 37.1449275,11.5770925 C38.8985507,8.88105727 41.1304348,6.50220264 43.8405797,4.75770925 L44,4.75770925 Z" id="“”"></path>
            </g>
        </g>
    </g>
</svg>