<?xml version="1.0" encoding="UTF-8"?>
<svg width="44px" height="37px" viewBox="0 0 44 37" version="1.1" xmlns="http://www.w3.org/2000/svg" xmlns:xlink="http://www.w3.org/1999/xlink">
    <!-- Generator: Sketch 46 (44423) - http://www.bohemiancoding.com/sketch -->
    <title>quote-right</title>
    <desc>Created with Sketch.</desc>
    <defs></defs>
    <g id="About" stroke="none" stroke-width="1" fill="none" fill-rule="evenodd">
        <g transform="translate(-1208.000000, -543.000000)" id="quote-right" fill="#FF8931">
            <g transform="translate(1208.000000, 543.000000)">
                <path d="M5.20147143e-08,31.781609 C2.41531376,30.0482065 4.54490112,27.8665405 6.52847978,25.0956522 C8.60137239,22.3608696 9.71754533,19.626087 10.0364519,16.8913043 C9.39863878,17.0521739 8.60137239,17.2130435 7.64465273,17.2130435 C5.41230684,17.2130435 3.65832079,16.4086957 2.22324129,14.8 C0.788161793,13.3521739 0.150348683,11.2608696 0.150348683,8.84782609 C0.150348683,6.43478261 0.947615071,4.34347826 2.54214785,2.57391304 C4.13668062,0.804347826 6.20957323,0 8.60137239,0 C11.3120781,0 13.7038773,1.12608696 15.6173166,3.37826087 C17.5307559,5.63043478 18.4874756,8.52608696 18.4874756,12.226087 C18.4874756,16.8913043 17.2118494,21.3956522 14.8200502,25.7391304 C12.4282511,30.0826087 9.39863878,33.6217391 5.41230684,36.3565217 L0,31.781609 L5.20147143e-08,31.781609 Z M25.839678,32.4320583 C28.399275,30.6853646 30.5195348,28.359994 32.2004575,25.7391304 C34.1138968,22.8434783 35.2300697,20.1086957 35.5489763,17.5347826 C34.9111632,17.6956522 34.2733501,17.8565217 33.4760837,17.8565217 C31.0842845,17.8565217 29.3302985,17.0521739 27.895219,15.4434783 C26.4601395,13.673913 25.6628731,11.7434783 25.6628731,9.49130435 C25.6628731,7.07826087 26.4601395,4.98695652 28.0546722,3.2173913 C29.649205,1.44782609 31.7220976,0.643478261 34.1138968,0.643478261 C36.8246025,0.643478261 39.2164017,1.76956522 41.129841,4.02173913 C43.0432803,6.27391304 44,9.16956522 44,12.8695652 C44,17.5347826 42.7243738,22.0391304 40.3325746,26.3826087 C37.9407755,30.726087 34.9111632,34.2652174 31.2437378,37 L25.8396784,32.4320586 L25.839678,32.4320583 Z" id="Combined-Shape"></path>
            </g>
        </g>
    </g>
</svg>