<?xml version="1.0" encoding="UTF-8" standalone="no"?>
<svg width="40px" height="40px" viewBox="0 0 40 40" version="1.1" xmlns="http://www.w3.org/2000/svg" xmlns:xlink="http://www.w3.org/1999/xlink">
    <!-- Generator: Sketch 46.1 (44463) - http://www.bohemiancoding.com/sketch -->
    <title>ontop</title>
    <desc>Created with Sketch.</desc>
    <defs></defs>
    <g id="Article-template" stroke="none" stroke-width="1" fill="none" fill-rule="evenodd">
        <g id="News---Article" transform="translate(-54.000000, -736.000000)">
            <g id="ontop" transform="translate(54.000000, 736.000000)">
                <circle id="Oval-2" fill="#FF4500" cx="20" cy="20" r="20"></circle>
                <g id="reddit" transform="translate(8.000000, 8.000000)" fill-rule="nonzero" fill="#FFFFFF">
                    <path d="M24,11.3076923 C24,11.8245135 23.8683036,12.2945536 23.6049107,12.7178123 C23.3415179,13.1410711 22.9866071,13.4640844 22.5401786,13.6868522 C22.6473214,14.0967449 22.7008929,14.524459 22.7008929,14.9699945 C22.7008929,16.3511548 22.2254464,17.6298418 21.2745536,18.8060556 C20.3236607,19.9822695 19.0267857,20.9112111 17.3839286,21.5928805 C15.7410714,22.2745499 13.9553571,22.6153846 12.0267857,22.6153846 C10.0982143,22.6153846 8.31473214,22.2745499 6.67633929,21.5928805 C5.03794643,20.9112111 3.74330357,19.9822695 2.79241071,18.8060556 C1.84151786,17.6298418 1.36607143,16.3511548 1.36607143,14.9699945 C1.36607143,14.5511911 1.41517857,14.1323877 1.51339286,13.7135843 C1.05803571,13.4908165 0.691964286,13.1633479 0.415178571,12.7311784 C0.138392857,12.2990089 0,11.8245135 0,11.3076923 C0,10.577014 0.258928571,9.95103655 0.776785714,9.42975996 C1.29464286,8.90848336 1.92410714,8.64784506 2.66517857,8.64784506 C3.42410714,8.64784506 4.07142857,8.92853246 4.60714286,9.48990726 C6.55357143,8.13547918 8.85267857,7.41371158 11.5044643,7.32460447 L13.0580357,0.360883797 C13.0848214,0.245044554 13.1517857,0.151482088 13.2589286,0.0801963993 C13.3660714,0.00891071104 13.4821429,-0.0133660666 13.6071429,0.0133660666 L18.5491071,1.09601746 C18.7098214,0.766321149 18.9508929,0.501227496 19.2723214,0.300736498 C19.59375,0.100245499 19.9464286,0 20.3303571,0 C20.8839286,0 21.3571429,0.193807965 21.75,0.581423895 C22.1428571,0.969039825 22.3392857,1.43907983 22.3392857,1.99154392 C22.3392857,2.544008 22.1428571,3.01627569 21.75,3.40834697 C21.3571429,3.80041826 20.8839286,3.9964539 20.3303571,3.9964539 C19.7767857,3.9964539 19.3058036,3.80264594 18.9174107,3.41503001 C18.5290179,3.02741408 18.3348214,2.55737407 18.3348214,2.00490998 L13.8616071,1.01582106 L12.46875,7.32460447 C15.1473214,7.40480087 17.4642857,8.11765776 19.4196429,9.46317512 C19.9375,8.91962175 20.5758929,8.64784506 21.3348214,8.64784506 C22.0758929,8.64784506 22.7053571,8.90848336 23.2232143,9.42975996 C23.7410714,9.95103655 24,10.577014 24,11.3076923 Z M5.59821429,13.9675396 C5.59821429,14.5200036 5.79241071,14.9922713 6.18080357,15.3843426 C6.56919643,15.7764139 7.04017857,15.9724495 7.59375,15.9724495 C8.14732143,15.9724495 8.62053571,15.7764139 9.01339286,15.3843426 C9.40625,14.9922713 9.60267857,14.5200036 9.60267857,13.9675396 C9.60267857,13.4150755 9.40625,12.9450355 9.01339286,12.5574195 C8.62053571,12.1698036 8.14732143,11.9759956 7.59375,11.9759956 C7.04910714,11.9759956 6.58035714,12.1720313 6.1875,12.5641026 C5.79464286,12.9561738 5.59821429,13.4239862 5.59821429,13.9675396 Z M16.4464286,18.7124932 C16.5446429,18.6144754 16.59375,18.4986361 16.59375,18.3649755 C16.59375,18.2313148 16.5446429,18.1154755 16.4464286,18.0174577 C16.3571429,17.9283506 16.2455357,17.8837971 16.1116071,17.8837971 C15.9776786,17.8837971 15.8616071,17.9283506 15.7633929,18.0174577 C15.3973214,18.3917076 14.8571429,18.6679396 14.1428571,18.8461538 C13.4285714,19.0243681 12.7142857,19.1134752 12,19.1134752 C11.2857143,19.1134752 10.5714286,19.0243681 9.85714286,18.8461538 C9.14285714,18.6679396 8.60267857,18.3917076 8.23660714,18.0174577 C8.13839286,17.9283506 8.02232143,17.8837971 7.88839286,17.8837971 C7.75446429,17.8837971 7.64285714,17.9283506 7.55357143,18.0174577 C7.45535714,18.1065648 7.40625,18.2201764 7.40625,18.3582924 C7.40625,18.4964084 7.45535714,18.6144754 7.55357143,18.7124932 C7.9375,19.0956538 8.46651786,19.3986179 9.140625,19.6213857 C9.81473214,19.8441535 10.3616071,19.9755865 10.78125,20.0156847 C11.2008929,20.0557829 11.6071429,20.075832 12,20.075832 C12.3928571,20.075832 12.7991071,20.0557829 13.21875,20.0156847 C13.6383929,19.9755865 14.1852679,19.8441535 14.859375,19.6213857 C15.5334821,19.3986179 16.0625,19.0956538 16.4464286,18.7124932 Z M16.40625,15.9724495 C16.9598214,15.9724495 17.4308036,15.7764139 17.8191964,15.3843426 C18.2075893,14.9922713 18.4017857,14.5200036 18.4017857,13.9675396 C18.4017857,13.4239862 18.2053571,12.9561738 17.8125,12.5641026 C17.4196429,12.1720313 16.9508929,11.9759956 16.40625,11.9759956 C15.8526786,11.9759956 15.3794643,12.1698036 14.9866071,12.5574195 C14.59375,12.9450355 14.3973214,13.4150755 14.3973214,13.9675396 C14.3973214,14.5200036 14.59375,14.9922713 14.9866071,15.3843426 C15.3794643,15.7764139 15.8526786,15.9724495 16.40625,15.9724495 Z" id="Shape"></path>
                </g>
            </g>
        </g>
    </g>
</svg>