<?xml version="1.0" encoding="UTF-8"?>
<svg width="19px" height="19px" viewBox="0 0 19 19" version="1.1" xmlns="http://www.w3.org/2000/svg" xmlns:xlink="http://www.w3.org/1999/xlink">
    <!-- Generator: Sketch 45.2 (43514) - http://www.bohemiancoding.com/sketch -->
    <title>RSS-color</title>
    <desc>Created with Sketch.</desc>
    <defs></defs>
    <g id="News" stroke="none" stroke-width="1" fill="none" fill-rule="evenodd">
        <g id="News---Article" transform="translate(-798.000000, -946.000000)" fill="#FFFFFF">
            <g id="RSS" transform="translate(786.000000, 937.000000)">
                <path d="M12.0002,25.3333333 C12.0002,23.8606667 13.1941872,22.6666667 14.6668381,22.6666667 C16.139489,22.6666667 17.3334762,23.8606667 17.3334762,25.3333333 C17.3334762,26.806 16.139489,28 14.6668381,28 C13.1941872,28 12.0002,26.806 12.0002,25.3333333 Z M30.6666667,28 L27.1113714,28 C27.1113714,19.6673333 20.3327774,12.8886667 12.0002,12.8886667 L12.0002,9.33333333 C22.2927564,9.33333333 30.6666667,17.7073333 30.6666667,28 Z M24.4445333,28 L20.8892381,28 C20.8892381,23.0986667 16.9012808,19.1113333 12,19.1113333 L12,15.5553333 C18.8619265,15.5553333 24.4445333,21.138 24.4445333,28 Z"></path>
            </g>
        </g>
    </g>
</svg>