<?xml version="1.0" encoding="UTF-8"?>
<svg width="19px" height="15px" viewBox="0 0 19 15" version="1.1" xmlns="http://www.w3.org/2000/svg" xmlns:xlink="http://www.w3.org/1999/xlink">
    <!-- Generator: Sketch 45.2 (43514) - http://www.bohemiancoding.com/sketch -->
    <title>twitter-ic</title>
    <desc>Created with Sketch.</desc>
    <defs></defs>
    <g id="Symbols" stroke="none" stroke-width="1" fill="none" fill-rule="evenodd">
        <g id="navigation/topbar" transform="translate(-1191.000000, -33.000000)">
            <g id="twitter-ic" transform="translate(1184.000000, 24.000000)">
                <rect id="Rectangle-2-Copy-2" x="0" y="0" width="32" height="32"></rect>
                <g id="twitter" transform="translate(7.000000, 9.000000)" fill-rule="nonzero" fill="#3F4245">
                    <path d="M16.4502,3.980625 C16.4578,4.1325 16.46065,4.28625 16.46065,4.438125 C16.46065,9.11625 12.8535,14.50875 6.25765,14.50875 C4.2313,14.50875 2.34745,13.9228125 0.76,12.9178125 C1.0412,12.950625 1.3262,12.9675 1.615,12.9675 C3.2965,12.9675 4.84215,12.40125 6.0686,11.4534375 C4.50015,11.424375 3.1749,10.4025 2.7189,8.99625 C2.9374,9.0365625 3.16255,9.058125 3.3934,9.058125 C3.72115,9.058125 4.03845,9.0159375 4.33865,8.9353125 C2.698,8.6090625 1.46205,7.179375 1.46205,5.46375 C1.46205,5.44875 1.46205,5.4346875 1.46205,5.4196875 C1.9456,5.685 2.49945,5.844375 3.08655,5.863125 C2.1242,5.2275 1.49055,4.145625 1.49055,2.9165625 C1.49055,2.26875 1.66725,1.6603125 1.97695,1.1371875 C3.7449,3.279375 6.38875,4.6875 9.3689,4.835625 C9.3081,4.5759375 9.27675,4.306875 9.27675,4.0284375 C9.27675,2.0746875 10.8813,0.49125 12.86205,0.49125 C13.89375,0.49125 14.8257,0.9196875 15.48025,1.6078125 C16.2963,1.4484375 17.0639,1.1540625 17.7574,0.7490625 C17.4895,1.575 16.92045,2.26875 16.1804,2.7065625 C16.9062,2.6203125 17.5959,2.431875 18.24,2.1496875 C17.7593,2.8603125 17.1513,3.4828125 16.4502,3.980625 Z" id="Shape"></path>
                </g>
            </g>
        </g>
    </g>
</svg>