<?xml version="1.0" encoding="UTF-8"?>
<svg width="19px" height="15px" viewBox="0 0 19 15" version="1.1" xmlns="http://www.w3.org/2000/svg" xmlns:xlink="http://www.w3.org/1999/xlink">
    <!-- Generator: Sketch 46 (44423) - http://www.bohemiancoding.com/sketch -->
    <title>twitter</title>
    <desc>Created with Sketch.</desc>
    <defs></defs>
    <g id="Page-1" stroke="none" stroke-width="1" fill="none" fill-rule="evenodd" opacity="0.5">
        <g id="Home" transform="translate(-320.000000, -97.000000)" fill-rule="nonzero" fill="#F1F3F5">
            <g id="Share-Panel" transform="translate(168.000000, 80.000000)">
                <path d="M168.516,20.722 C168.524,20.884 168.527,21.048 168.527,21.21 C168.527,26.2 164.73,31.952 157.787,31.952 C155.654,31.952 153.671,31.327 152,30.255 C152.296,30.29 152.596,30.308 152.9,30.308 C154.67,30.308 156.297,29.704 157.588,28.693 C155.937,28.662 154.542,27.572 154.062,26.072 C154.292,26.115 154.529,26.138 154.772,26.138 C155.117,26.138 155.451,26.093 155.767,26.007 C154.04,25.659 152.739,24.134 152.739,22.304 C152.739,22.288 152.739,22.273 152.739,22.257 C153.248,22.54 153.831,22.71 154.449,22.73 C153.436,22.052 152.769,20.898 152.769,19.587 C152.769,18.896 152.955,18.247 153.281,17.689 C155.142,19.974 157.925,21.476 161.062,21.634 C160.998,21.357 160.965,21.07 160.965,20.773 C160.965,18.689 162.654,17 164.739,17 C165.825,17 166.806,17.457 167.495,18.191 C168.354,18.021 169.162,17.707 169.892,17.275 C169.61,18.156 169.011,18.896 168.232,19.363 C168.996,19.271 169.722,19.07 170.4,18.769 C169.894,19.527 169.254,20.191 168.516,20.722 Z" id="twitter"></path>
            </g>
        </g>
    </g>
</svg>