<?xml version="1.0" encoding="UTF-8"?>
<svg width="40px" height="40px" viewBox="0 0 40 40" version="1.1" xmlns="http://www.w3.org/2000/svg" xmlns:xlink="http://www.w3.org/1999/xlink">
    <!-- Generator: Sketch 45.2 (43514) - http://www.bohemiancoding.com/sketch -->
    <title>Twitter_Color</title>
    <desc>Created with Sketch.</desc>
    <defs></defs>
    <g id="News" stroke="none" stroke-width="1" fill="none" fill-rule="evenodd">
        <g id="News---Article" transform="translate(-730.000000, -937.000000)">
            <g id="Twitter" transform="translate(730.000000, 937.000000)">
                <path d="M0,20 C0,8.95430446 8.95430446,0 20,0 C31.0456955,0 40,8.95430446 40,20 C40,31.0456955 31.0456955,40 20,40 C8.95430446,40 0,31.0456955 0,20 Z" id="back" fill="#55ACEE"></path>
                <path d="M19.4010022,16.2562505 L19.4429709,16.9482956 L18.7434916,16.8635554 C16.1973869,16.5387179 13.9730426,15.4370951 12.0844484,13.5869336 L11.1611357,12.6689146 L10.9233127,13.3468363 C10.4196876,14.8580369 10.7414481,16.4539777 11.7906671,17.5273538 C12.3502505,18.1205353 12.2243443,18.2052756 11.2590628,17.8521913 C10.9233127,17.7392044 10.6295314,17.6544641 10.6015522,17.6968342 C10.5036251,17.7956978 10.8393752,19.0809245 11.1051773,19.5893658 C11.4689066,20.2955343 12.2103547,20.9875794 13.0217507,21.3971571 L13.7072404,21.7219946 L12.8958444,21.736118 C12.1124276,21.736118 12.0844484,21.7502414 12.1683859,22.0468321 C12.4481777,22.9648512 13.553355,23.9393637 14.7844386,24.3630648 L15.651793,24.6596556 L14.8963553,25.1116034 C13.7771884,25.7612784 12.4621672,26.128486 11.1471461,26.1567328 C10.5176147,26.1708561 10,26.2273496 10,26.2697197 C10,26.4109534 11.7067296,27.2018621 12.6999902,27.5125763 C15.6797722,28.4305953 19.2191376,28.0351409 21.877159,26.4674469 C23.7657532,25.3517007 25.6543474,23.1343316 26.5356913,20.9875794 C27.0113373,19.8435865 27.4869832,17.7533277 27.4869832,16.7505685 C27.4869832,16.1008935 27.528952,16.0161532 28.3123688,15.2393679 C28.7740252,14.7874201 29.2077024,14.2931021 29.2916399,14.1518684 C29.4315358,13.8835244 29.4175462,13.8835244 28.7040773,14.1236217 C27.5149624,14.5473228 27.3470874,14.4908293 27.93465,13.8552777 C28.3683272,13.4033298 28.8859419,12.5841744 28.8859419,12.3440771 C28.8859419,12.301707 28.6760981,12.3723238 28.4382751,12.4994342 C28.1864626,12.6406678 27.6268791,12.8525184 27.2071915,12.9796287 L26.4517538,13.219726 L25.7662641,12.7536548 C25.3885452,12.4994342 24.856941,12.2169668 24.5771492,12.1322265 C23.8636803,11.9344994 22.7724926,11.9627461 22.1289716,12.18872 C20.3802732,12.8242717 19.2750959,14.4625826 19.4010022,16.2562505 Z" id="Shape" fill="#FFFFFF"></path>
            </g>
        </g>
    </g>
</svg>