<?xml version="1.0" encoding="UTF-8"?>
<svg width="41px" height="40px" viewBox="0 0 41 40" version="1.1" xmlns="http://www.w3.org/2000/svg" xmlns:xlink="http://www.w3.org/1999/xlink">
    <!-- Generator: Sketch 46 (44423) - http://www.bohemiancoding.com/sketch -->
    <title>Youtube</title>
    <desc>Created with Sketch.</desc>
    <defs></defs>
    <g id="Page-1" stroke="none" stroke-width="1" fill="none" fill-rule="evenodd">
        <g id="Home---Mob---Menu" transform="translate(-180.000000, -526.000000)">
            <g id="Youtube" transform="translate(180.000000, 526.000000)">
                <path d="M0,20 C0,8.95430446 9.0407462,0 20.1930731,0 C31.3453999,0 40.3861461,8.95430446 40.3861461,20 C40.3861461,31.0456955 31.3453999,40 20.1930731,40 C9.0407462,40 0,31.0456955 0,20 Z" id="back" fill="#CE1312"></path>
                <path d="M30.7029508,15.9742302 C30.7029508,15.9742302 30.4925738,14.4720309 29.848,13.8105182 C29.0300164,12.9418996 28.1132295,12.9378119 27.6931475,12.887398 C24.6833443,12.6666667 20.1686393,12.6666667 20.1686393,12.6666667 L20.1592295,12.6666667 C20.1592295,12.6666667 15.6445246,12.6666667 12.6347213,12.887398 C12.2139672,12.9378119 11.2978525,12.9418996 10.4791967,13.8105182 C9.83462295,14.4720309 9.62491803,15.9742302 9.62491803,15.9742302 C9.62491803,15.9742302 9.40983607,17.7387183 9.40983607,19.5025251 L9.40983607,21.1566476 C9.40983607,22.9211356 9.62491803,24.6849425 9.62491803,24.6849425 C9.62491803,24.6849425 9.83462295,26.1871418 10.4791967,26.8486545 C11.2978525,27.7172731 12.3725902,27.6900224 12.8511475,27.7806312 C14.5718033,27.9482235 20.1639344,28 20.1639344,28 C20.1639344,28 24.6833443,27.9931873 27.6931475,27.772456 C28.1132295,27.7213608 29.0300164,27.7172731 29.848,26.8486545 C30.4925738,26.1871418 30.7029508,24.6849425 30.7029508,24.6849425 C30.7029508,24.6849425 30.9180328,22.9211356 30.9180328,21.1566476 L30.9180328,19.5025251 C30.9180328,17.7387183 30.7029508,15.9742302 30.7029508,15.9742302 L30.7029508,15.9742302 Z" fill="#FFFFFF"></path>
                <polygon id="Path" fill="#CE1312" points="17.9432131 23.1609425 17.942541 17.0356482 23.7537869 20.108855"></polygon>
            </g>
        </g>
    </g>
</svg>