<?xml version="1.0" encoding="UTF-8"?>
<svg width="19px" height="15px" viewBox="0 0 19 15" version="1.1" xmlns="http://www.w3.org/2000/svg" xmlns:xlink="http://www.w3.org/1999/xlink">
    <!-- Generator: Sketch 45.2 (43514) - http://www.bohemiancoding.com/sketch -->
    <title>yt-ic</title>
    <desc>Created with Sketch.</desc>
    <defs></defs>
    <g id="Symbols" stroke="none" stroke-width="1" fill="none" fill-rule="evenodd">
        <g id="navigation/topbar" transform="translate(-1271.000000, -33.000000)">
            <g id="yt-ic" transform="translate(1264.000000, 24.000000)">
                <rect id="Rectangle-2-Copy" x="0" y="0" width="32" height="32"></rect>
                <g id="youtube" transform="translate(7.000000, 9.000000)" fill-rule="nonzero" fill="#3F4245">
                    <path d="M9.5,0.28125 C0.1634,0.28125 0,1.100625 0,7.5 C0,13.899375 0.1634,14.71875 9.5,14.71875 C18.8366,14.71875 19,13.899375 19,7.5 C19,1.100625 18.8366,0.28125 9.5,0.28125 Z M12.54475,7.813125 L8.27925,9.778125 C7.9059,9.94875 7.6,9.7575 7.6,9.350625 L7.6,5.649375 C7.6,5.2434375 7.9059,5.05125 8.27925,5.221875 L12.54475,7.186875 C12.9181,7.359375 12.9181,7.640625 12.54475,7.813125 Z" id="Shape"></path>
                </g>
            </g>
        </g>
    </g>
</svg>